<?xml version="1.0" encoding="UTF-8"?>
<svg version="1.1" xmlns="http://www.w3.org/2000/svg" width="104" height="140">
<path d="M0 0 C0.08728882 3.24983 0.14048658 6.4993575 0.1875 9.75 C0.21263672 10.67039062 0.23777344 11.59078125 0.26367188 12.5390625 C0.27333984 13.42851563 0.28300781 14.31796875 0.29296875 15.234375 C0.3086792 16.05131836 0.32438965 16.86826172 0.34057617 17.70996094 C-0.08184331 20.55031558 -1.0439134 21.92769552 -3 24 C-3.66 24 -4.32 24 -5 24 C-5.11730469 24.58136719 -5.23460937 25.16273437 -5.35546875 25.76171875 C-6.037253 28.1293695 -6.9924274 29.74043559 -8.3125 31.8125 C-11.93281983 38.08491458 -13.35184992 45.01147534 -15 52 C-13.94594971 51.75769653 -13.94594971 51.75769653 -12.87060547 51.51049805 C-7.66541543 50.58482596 -2.39835744 50.81541346 2.875 50.8125 C4.03386719 50.80025391 5.19273438 50.78800781 6.38671875 50.77539062 C12.3132851 50.7652308 17.4183716 50.94146941 23 53 C22.566875 52.175 22.13375 51.35 21.6875 50.5 C17.11600642 41.01838368 16.26762103 33.44318157 17 23 C17.99 23 18.98 23 20 23 C21.15082685 25.24756784 22.29576858 27.49781748 23.4375 29.75 C23.76298828 30.38421875 24.08847656 31.0184375 24.42382812 31.671875 C27.44894726 37.65973969 28.12459668 41.54355879 28.0625 48.25 C28.05347656 49.51328125 28.04445313 50.7765625 28.03515625 52.078125 C28.02355469 53.04234375 28.01195313 54.0065625 28 55 C28.59167969 55.17015625 29.18335937 55.3403125 29.79296875 55.515625 C34.58930819 56.98660675 38.36718032 58.36718032 42 62 C42 62.66 42 63.32 42 64 C42.66 64 43.32 64 44 64 C46.98964149 69.46382756 48.88002254 74.63606808 50.38671875 80.6796875 C50.91634726 83.00253529 50.91634726 83.00253529 52 85 C52.14901491 87.10053716 52.22138453 89.20687825 52.25 91.3125 C52.27578125 92.44300781 52.3015625 93.57351562 52.328125 94.73828125 C51.77823372 100.20446241 48.57437158 103.96441918 45 108 C44.34 108 43.68 108 43 108 C42.505 109.485 42.505 109.485 42 111 C34.48338035 115.43334605 24.01036584 115.08014094 15.75 113.25 C11.3499562 111.78331873 7.18333789 109.99483242 3 108 C2.49726562 108.44859375 1.99453125 108.8971875 1.4765625 109.359375 C-1.70197305 111.46502947 -4.96609174 112.35438536 -8.625 113.25 C-9.337771 113.42474854 -10.05054199 113.59949707 -10.78491211 113.77954102 C-19.23545991 115.69964171 -26.24557243 115.175461 -34 111 C-39.8263058 106.88731355 -43.60296673 102.10606345 -45 95 C-45.91044613 83.31241249 -44.25653844 72.11237497 -36.8125 62.875 C-32.02937004 57.58625377 -26.94829057 55.23819019 -20 54 C-20.03480469 52.68386719 -20.06960937 51.36773437 -20.10546875 50.01171875 C-20.44623498 31.84213277 -20.44623498 31.84213277 -17 23 C-16.62488281 21.98421875 -16.24976562 20.9684375 -15.86328125 19.921875 C-8.08589901 0 -8.08589901 0 0 0 Z M-14 65 C-13.01 68.96 -12.02 72.92 -11 77 C-10.34 77 -9.68 77 -9 77 C-8.62681641 78.10601562 -8.62681641 78.10601562 -8.24609375 79.234375 C-6.88998168 82.24417858 -5.41481015 83.9546359 -3.0625 86.25 C-2.37285156 86.93578125 -1.68320312 87.6215625 -0.97265625 88.328125 C0.99321168 90.20447713 0.99321168 90.20447713 4 91 C6.18490007 88.32357511 6.18490007 88.32357511 6 86 C6.57492188 85.96519531 7.14984375 85.93039063 7.7421875 85.89453125 C11.15907002 84.54078368 12.37831372 81.74586134 14.125 78.6875 C14.47175781 78.10548828 14.81851563 77.52347656 15.17578125 76.92382812 C18.76604737 71.30989209 18.76604737 71.30989209 20 65 C7.90815337 62.87729338 -1.96719007 62.5317313 -14 65 Z M-26.0625 69.375 C-26.96097656 69.81585938 -27.85945313 70.25671875 -28.78515625 70.7109375 C-31.13108743 71.8054452 -31.13108743 71.8054452 -32 74 C-32.99 74.33 -33.98 74.66 -35 75 C-35 75.66 -35 76.32 -35 77 C-35.66 77 -36.32 77 -37 77 C-40.24485875 81.65468312 -40.24485875 81.65468312 -40.65625 87.1015625 C-37.65515117 93.80229178 -32.22620347 97.6258763 -25.625 100.4375 C-19.44472975 101.39650745 -13.52399177 101.09851492 -8 98 C-8.43505859 97.13761719 -8.43505859 97.13761719 -8.87890625 96.2578125 C-13.57028465 86.80967063 -16.53615041 77.23445216 -19 67 C-21.78920052 67 -23.57386339 68.13605285 -26.0625 69.375 Z M26 68 C25.63648437 69.19496094 25.27296875 70.38992187 24.8984375 71.62109375 C20.0539851 87.0853266 20.0539851 87.0853266 15.1015625 93.37109375 C13.71990544 95.08644707 13.71990544 95.08644707 14 98 C20.62569935 100.94475526 27.05151713 102.53482356 34.19140625 100.3203125 C35.82977815 99.62524563 37.42213291 98.82323501 39 98 C39 97.34 39 96.68 39 96 C39.66 96 40.32 96 41 96 C41.33 94.68 41.66 93.36 42 92 C42.66 92 43.32 92 44 92 C45.81135789 88.15086447 46.76200915 85.23338415 46 81 C42.06554217 75.56553013 35.9563555 71.0057025 30 68 C28.68 68 27.36 68 26 68 Z " fill="#F34393" transform="translate(48,22)"/>
<path d="M0 0 C-0.52283177 10.4566355 -4.13026006 19.43764048 -10.86328125 27.4765625 C-12.19934177 28.95036123 -12.19934177 28.95036123 -12 31 C-5.12400175 35.02497459 2.22172883 34.76324822 10 34 C14.18977641 32.78626772 16.48094932 30.63439527 19.25 27.25 C21.2351783 23.5632403 22.63571296 19.95643241 24 16 C26.58894134 18.48106878 27.32227965 20.64488469 27.5625 24.125 C27.38567889 30.07797743 24.25406636 34.21786841 21 39 C20.51917969 39.88558594 20.03835937 40.77117187 19.54296875 41.68359375 C17.35734981 44.96478877 15.40909242 45.44382094 11.73046875 46.5 C-0.25441046 48.69465599 -10.23967665 46.13108011 -21 41 C-21.50273438 41.44859375 -22.00546875 41.8971875 -22.5234375 42.359375 C-25.70213185 44.46513466 -28.96615095 45.35376354 -32.625 46.25 C-33.3363208 46.42547363 -34.0476416 46.60094727 -34.78051758 46.78173828 C-41.94090539 48.41696008 -49.41069525 48.765317 -56 45 C-60.69091827 41.01271947 -65.52738781 35.80452815 -66.3125 29.484375 C-66.3125 27.29886856 -66.22634075 25.17287123 -66 23 C-63 24 -63 24 -60.8125 26.8125 C-57.08429921 31.39002464 -52.99929477 33.67706113 -47.09765625 34.3125 C-41.07308766 34.43405498 -35.7498523 33.76918532 -30 32 C-30.5775 31.01 -31.155 30.02 -31.75 29 C-32.50407356 27.66896625 -33.2538459 26.33548936 -34 25 C-34.36996094 24.34 -34.73992188 23.68 -35.12109375 23 C-37.46694105 18.6004622 -38.58550608 14.97392703 -39 10 C-38.01 10 -37.02 10 -36 10 C-36 10.66 -36 11.32 -36 12 C-35.34 12 -34.68 12 -34 12 C-32.44921875 13.828125 -32.44921875 13.828125 -30.6875 16.25 C-28.07808341 19.71648439 -25.5911801 22.49705629 -22 25 C-13.83478155 21.43440242 -9.01077086 12.57739596 -5 5 C-4.67 4.01 -4.34 3.02 -4 2 C-1 0 -1 0 0 0 Z " fill="#F12E84" transform="translate(72,89)"/>
<path d="M0 0 C0.73741328 9.43420805 1.17371132 16.08868324 -5.12109375 23.71875 C-11.6381615 31.63136448 -15.35389177 42.77439034 -15 53 C-15.66 53 -16.32 53 -17 53 C-17.83015174 28.0858691 -17.83015174 28.0858691 -13 17 C-12.566875 15.89205078 -12.566875 15.89205078 -12.125 14.76171875 C-10.42107528 10.84421326 -4.56645142 0 0 0 Z " fill="#F23188" transform="translate(47,24)"/>
<path d="M0 0 C4.7180888 4.26874701 5.8721433 9.47483021 6.1875 15.703125 C6.1875 19.14066711 6.13192098 22.56516856 6 26 C6.59167969 26.17015625 7.18335937 26.3403125 7.79296875 26.515625 C12.58930819 27.98660675 16.36718032 29.36718032 20 33 C20 33.66 20 34.32 20 35 C20.66 35 21.32 35 22 35 C24.98964149 40.46382756 26.88002254 45.63606808 28.38671875 51.6796875 C28.91634726 54.00253529 28.91634726 54.00253529 30 56 C30.14901491 58.10053716 30.22138453 60.20687825 30.25 62.3125 C30.27578125 63.44300781 30.3015625 64.57351562 30.328125 65.73828125 C29.7674856 71.31130384 26.48561396 74.79322453 23 79 C22.01 78.505 22.01 78.505 21 78 C21.42152344 77.37351562 21.84304687 76.74703125 22.27734375 76.1015625 C22.82519531 75.28429687 23.37304688 74.46703125 23.9375 73.625 C24.48277344 72.81289062 25.02804688 72.00078125 25.58984375 71.1640625 C27.62524858 68.04047724 28.15709498 66.26583105 28.1875 62.5625 C28.20167969 61.78003906 28.21585938 60.99757812 28.23046875 60.19140625 C28.14086064 57.70794013 28.14086064 57.70794013 26 55 C25.76216797 55.87011719 25.76216797 55.87011719 25.51953125 56.7578125 C23.54869393 63.35630651 21.39936879 67.94468179 15.29296875 71.63671875 C8.88892409 74.28797805 0.83294041 74.25589962 -5.75390625 72.09765625 C-7.9375 71 -7.9375 71 -11 69 C-9.62578789 66.10896886 -8.02328133 63.53492199 -6.25 60.875 C-1.74783434 53.51185223 0.48197553 45.19697327 3 37 C12.07681851 38.38897934 19.04134402 44.33104066 25 51 C24.41785472 43.86872031 22.09598405 38.69144814 16.8125 33.8125 C12.93388882 30.66745224 8.63255577 28.78579247 4 27 C3.96261719 25.88882813 3.92523438 24.77765625 3.88671875 23.6328125 C3.54412369 15.37246496 3.04445783 7.79304615 0 0 Z M4 39 C3.63648437 40.19496094 3.27296875 41.38992187 2.8984375 42.62109375 C-1.9460149 58.0853266 -1.9460149 58.0853266 -6.8984375 64.37109375 C-8.28009456 66.08644707 -8.28009456 66.08644707 -8 69 C-1.37430065 71.94475526 5.05151713 73.53482356 12.19140625 71.3203125 C13.82977815 70.62524563 15.42213291 69.82323501 17 69 C17 68.34 17 67.68 17 67 C17.66 67 18.32 67 19 67 C19.33 65.68 19.66 64.36 20 63 C20.66 63 21.32 63 22 63 C23.81135789 59.15086447 24.76200915 56.23338415 24 52 C20.06554217 46.56553013 13.9563555 42.0057025 8 39 C6.68 39 5.36 39 4 39 Z " fill="#FEECFC" transform="translate(70,51)"/>
<path d="M0 0 C0.08728882 3.24983 0.14048658 6.4993575 0.1875 9.75 C0.21263672 10.67039062 0.23777344 11.59078125 0.26367188 12.5390625 C0.27333984 13.42851563 0.28300781 14.31796875 0.29296875 15.234375 C0.3086792 16.05131836 0.32438965 16.86826172 0.34057617 17.70996094 C-0.08184331 20.55031558 -1.0439134 21.92769552 -3 24 C-3.66 24 -4.32 24 -5 24 C-5.11214844 24.56203125 -5.22429688 25.1240625 -5.33984375 25.703125 C-6.09057339 28.31513108 -7.21167376 30.39471322 -8.5625 32.75 C-9.01753906 33.54921875 -9.47257812 34.3484375 -9.94140625 35.171875 C-10.29074219 35.77515625 -10.64007813 36.3784375 -11 37 C-12 34 -12 34 -10.92578125 31.4765625 C-10.39339844 30.53554688 -9.86101563 29.59453125 -9.3125 28.625 C-8.79300781 27.68914063 -8.27351563 26.75328125 -7.73828125 25.7890625 C-6 23 -6 23 -3.80859375 20.63671875 C-1.427389 17.16519995 -1.54867348 14.23338872 -1.75 10.1875 C-1.76804688 9.49462891 -1.78609375 8.80175781 -1.8046875 8.08789062 C-1.85148936 6.39132336 -1.92322376 4.69547524 -2 3 C-13.39787074 14.75918653 -17.32516722 28.04816272 -17.6875 44.1875 C-17.72166016 45.23486328 -17.75582031 46.28222656 -17.79101562 47.36132812 C-17.87239835 49.90744469 -17.94189347 52.45326444 -18 55 C-18.68707031 55.26264648 -19.37414062 55.52529297 -20.08203125 55.79589844 C-20.98308594 56.1468457 -21.88414063 56.49779297 -22.8125 56.859375 C-23.70582031 57.20452148 -24.59914063 57.54966797 -25.51953125 57.90527344 C-28.42686812 59.18839337 -30.61731084 60.91514698 -33 63 C-33.66 63 -34.32 63 -35 63 C-35.28746094 63.57621094 -35.57492188 64.15242188 -35.87109375 64.74609375 C-36.58823673 66.17789825 -37.30916007 67.60782036 -38.03515625 69.03515625 C-38.37417969 69.70417969 -38.71320312 70.37320313 -39.0625 71.0625 C-39.40410156 71.73410156 -39.74570312 72.40570313 -40.09765625 73.09765625 C-43.59062244 80.46161528 -43.32537021 91.44644593 -41.05859375 99.234375 C-38.78124683 103.94612726 -35.96404191 107.60224979 -32 111 C-37.62410279 109.6766817 -40.09433333 105.65257805 -43 101 C-47.09152813 92.44498663 -45.04372052 81.89923871 -43 73 C-40.48882973 66.12732348 -35.40145985 59.95527214 -28.875 56.5625 C-25.97280373 55.21978264 -23.14451651 54.56035502 -20 54 C-20.03480469 52.68386719 -20.06960937 51.36773437 -20.10546875 50.01171875 C-20.44623498 31.84213277 -20.44623498 31.84213277 -17 23 C-16.62488281 21.98421875 -16.24976562 20.9684375 -15.86328125 19.921875 C-8.08589901 0 -8.08589901 0 0 0 Z " fill="#FFE6FC" transform="translate(48,22)"/>
<path d="M0 0 C0.17015625 1.03898437 0.3403125 2.07796875 0.515625 3.1484375 C2.28173418 13.48818139 4.03288426 22.78875645 11 31 C11 31.99 11 32.98 11 34 C3.74906374 37.34658597 -3.84982899 38.8149699 -11.59375 36.0859375 C-16.53936168 33.5307048 -19.81528753 30.53580261 -23 26 C-23.45375 25.360625 -23.9075 24.72125 -24.375 24.0625 C-25.40527702 20.66258582 -24.9265219 18.41654952 -24 15 C-20.07761839 8.2481141 -12.20235766 2.68367212 -4.8515625 0.3046875 C-3 0 -3 0 0 0 Z M-9.0625 4.375 C-9.96097656 4.81585938 -10.85945313 5.25671875 -11.78515625 5.7109375 C-14.13108743 6.8054452 -14.13108743 6.8054452 -15 9 C-15.99 9.33 -16.98 9.66 -18 10 C-18 10.66 -18 11.32 -18 12 C-18.66 12 -19.32 12 -20 12 C-23.24485875 16.65468312 -23.24485875 16.65468312 -23.65625 22.1015625 C-20.65515117 28.80229178 -15.22620347 32.6258763 -8.625 35.4375 C-2.44472975 36.39650745 3.47600823 36.09851492 9 33 C8.56494141 32.13761719 8.56494141 32.13761719 8.12109375 31.2578125 C3.42971535 21.80967063 0.46384959 12.23445216 -2 2 C-4.78920052 2 -6.57386339 3.13605285 -9.0625 4.375 Z " fill="#FFECFB" transform="translate(31,87)"/>
<path d="M0 0 C3 2 3 2 3.6875 4.625 C3.8421875 5.800625 3.8421875 5.800625 4 7 C3.34 6.67 2.68 6.34 2 6 C1.35815024 16.03522016 1.35815024 16.03522016 5.02734375 25.12109375 C6.34653119 27.66940362 6.6225856 30.17535114 7 33 C6.19820312 32.855625 5.39640625 32.71125 4.5703125 32.5625 C-8.60076332 30.41212027 -21.75889099 30.29146981 -35 32 C-34.58411954 25.80481527 -33.39748106 20.73310689 -31 15 C-30.67 15 -30.34 15 -30 15 C-30.55145271 20.23880078 -31.42922093 24.97350697 -33 30 C-32.2972998 29.83846436 -31.59459961 29.67692871 -30.87060547 29.51049805 C-25.66541543 28.58482596 -20.39835744 28.81541346 -15.125 28.8125 C-13.96613281 28.80025391 -12.80726562 28.78800781 -11.61328125 28.77539062 C-5.6867149 28.7652308 -0.5816284 28.94146941 5 31 C4.566875 30.175 4.13375 29.35 3.6875 28.5 C-0.82815627 19.1341944 -2.02914993 11.35663541 -1 1 C-0.67 0.67 -0.34 0.34 0 0 Z " fill="#FFE9FB" transform="translate(66,44)"/>
<path d="M0 0 C2.91388639 0.76681221 5.22951691 2.12473745 7.875 3.5625 C13.81062733 6.29288857 20.25470471 6.20481794 26.6875 6.25 C27.80608398 6.2809375 27.80608398 6.2809375 28.94726562 6.3125 C33.33477588 6.3438114 35.75749263 5.99793868 39 3 C39.66 3 40.32 3 41 3 C40 6 40 6 38.390625 6.94921875 C25.18398399 11.50406392 13.2191249 8.82671234 1 3 C0.49726562 3.44859375 -0.00546875 3.8971875 -0.5234375 4.359375 C-3.70213185 6.46513466 -6.96615095 7.35376354 -10.625 8.25 C-11.3363208 8.42547363 -12.0476416 8.60094727 -12.78051758 8.78173828 C-20.20848676 10.47806779 -27.04025731 10.47987134 -34 7 C-31 6 -31 6 -28 7 C-18.49351609 7.7540904 -9.61571457 7.42856903 -1.875 1.32421875 C-1.25625 0.88722656 -0.6375 0.45023437 0 0 Z " fill="#FFE7FB" transform="translate(50,127)"/>
<path d="M0 0 C5.0571087 4.80634298 6.99351954 9.17261907 7.18359375 16.078125 C7.21716628 20.05558595 7.13025547 24.02479594 7 28 C5.31134914 25.46702371 4.13824363 23.20879805 2.9375 20.4375 C1.52580608 17.19210535 1.52580608 17.19210535 0 14 C-0.07116382 11.62597499 -0.08409085 9.24999323 -0.0625 6.875 C-0.05347656 5.59367187 -0.04445313 4.31234375 -0.03515625 2.9921875 C-0.02355469 2.00476562 -0.01195313 1.01734375 0 0 Z " fill="#F3358C" transform="translate(67,49)"/>
<path d="M0 0 C0.33 0 0.66 0 1 0 C0.44854729 5.23880078 -0.42922093 9.97350697 -2 15 C-1.29786377 14.83701416 -0.59572754 14.67402832 0.12768555 14.50610352 C3.13731803 13.97580448 5.90268462 13.88668043 8.95703125 13.90234375 C10.06884766 13.90556641 11.18066406 13.90878906 12.32617188 13.91210938 C13.47666016 13.92048828 14.62714844 13.92886719 15.8125 13.9375 C16.98232422 13.94201172 18.15214844 13.94652344 19.35742188 13.95117188 C22.23833358 13.9629307 25.11914044 13.97936574 28 14 C28 14.33 28 14.66 28 15 C27.38592285 15.02505615 26.7718457 15.0501123 26.13916016 15.07592773 C23.30097366 15.19345264 20.4629956 15.31545526 17.625 15.4375 C16.17673828 15.49647461 16.17673828 15.49647461 14.69921875 15.55664062 C8.43737688 15.82980822 2.22902691 16.30323128 -4 17 C-3.53134929 10.80512586 -2.40368751 5.7479484 0 0 Z " fill="#FFEEFA" transform="translate(35,59)"/>
<path d="M0 0 C0.33 0.66 0.66 1.32 1 2 C1.66 2 2.32 2 3 2 C4.296875 3.57421875 4.296875 3.57421875 5.75 5.6875 C8.48396839 9.47869263 11.29179505 12.17470099 15 15 C17.2236068 13.0745356 17.2236068 13.0745356 18 10 C19.65 9.67 21.3 9.34 23 9 C21.44499019 12.81684226 18.96404505 15.19195732 16 18 C10.15805444 15.52840765 5.60557074 11.13100452 2 6 C2 5.34 2 4.68 2 4 C1.34 4 0.68 4 0 4 C0 2.68 0 1.36 0 0 Z " fill="#FEE4F7" transform="translate(36,97)"/>
<path d="M0 0 C-1 3 -1 3 -2.609375 3.94921875 C-9.2567251 6.24182672 -16.00712059 6.954851 -23 6 C-24.3661974 5.04538886 -25.70587606 4.05024807 -27 3 C-26.07719238 3.02356567 -26.07719238 3.02356567 -25.13574219 3.04760742 C-22.34058879 3.11007926 -19.54558245 3.14902868 -16.75 3.1875 C-15.78191406 3.21263672 -14.81382813 3.23777344 -13.81640625 3.26367188 C-12.88183594 3.27333984 -11.94726562 3.28300781 -10.984375 3.29296875 C-10.12553711 3.3086792 -9.26669922 3.32438965 -8.38183594 3.34057617 C-4.93420843 2.8476036 -3.34960689 0 0 0 Z " fill="#FDB9E2" transform="translate(91,130)"/>
<path d="M0 0 C3.35435922 1.38801071 5.11290303 2.88629 7 6 C7 6.99 7 7.98 7 9 C0.19877155 12.13902852 -5.56621057 12.33452052 -13 12 C-13 11.67 -13 11.34 -13 11 C-12.03578125 10.86722656 -11.0715625 10.73445313 -10.078125 10.59765625 C-8.18320312 10.33275391 -8.18320312 10.33275391 -6.25 10.0625 C-4.99703125 9.88847656 -3.7440625 9.71445313 -2.453125 9.53515625 C0.09982593 9.13950662 2.5186291 8.69553578 5 8 C4.6390625 7.50628906 4.278125 7.01257813 3.90625 6.50390625 C3.4421875 5.86324219 2.978125 5.22257812 2.5 4.5625 C2.0359375 3.92441406 1.571875 3.28632812 1.09375 2.62890625 C0 1 0 1 0 0 Z " fill="#FECDF4" transform="translate(35,112)"/>
<path d="M0 0 C1.65 0 3.3 0 5 0 C5.99 4.29 6.98 8.58 8 13 C6.68 13.33 5.36 13.66 4 14 C3.67 9.71 3.34 5.42 3 1 C2.01 0.67 1.02 0.34 0 0 Z " fill="#F7429C" transform="translate(28,86)"/>
<path d="M0 0 C0.99 0 1.98 0 3 0 C3 0.66 3 1.32 3 2 C1.609375 3.296875 1.609375 3.296875 -0.25 4.75 C-5.03375834 8.72196904 -7.92836188 13.13035865 -10 19 C-11 16 -11 16 -10.3984375 14.1328125 C-8.11754432 9.65808312 -5.73745702 6.44239463 -2 3 C-1.34 2.01 -0.68 1.02 0 0 Z " fill="#FFECFD" transform="translate(45,22)"/>
<path d="M0 0 C3 2 3 2 3.6875 4.625 C3.790625 5.40875 3.89375 6.1925 4 7 C3.34 6.67 2.68 6.34 2 6 C1.67 8.97 1.34 11.94 1 15 C0.67 15 0.34 15 0 15 C-0.19390729 12.68802845 -0.37996367 10.3753971 -0.5625 8.0625 C-0.71912109 6.13083984 -0.71912109 6.13083984 -0.87890625 4.16015625 C-0.91886719 3.11730469 -0.95882812 2.07445312 -1 1 C-0.67 0.67 -0.34 0.34 0 0 Z " fill="#FEC0E3" transform="translate(66,44)"/>
<path d="M0 0 C0.66 0 1.32 0 2 0 C2 0.99 2 1.98 2 3 C4.97 3.99 7.94 4.98 11 6 C6.71372952 7.07156762 6.33924618 7.0365854 2.75 5.0625 C2.04359375 4.68222656 1.3371875 4.30195312 0.609375 3.91015625 C0.07828125 3.60980469 -0.4528125 3.30945313 -1 3 C-0.67 2.01 -0.34 1.02 0 0 Z " fill="#FED5F2" transform="translate(60,117)"/>
<path d="M0 0 C2.04795423 1.9626228 2.94976638 3.4277307 3.19921875 6.26953125 C3.18858877 8.51954383 3.12958525 10.75385562 3 13 C2.67 13 2.34 13 2 13 C1.67 10.69 1.34 8.38 1 6 C0.01 6.33 -0.98 6.66 -2 7 C-1.34 4.69 -0.68 2.38 0 0 Z " fill="#F9409E" transform="translate(96,105)"/>
<path d="M0 0 C0.33 0.99 0.66 1.98 1 3 C-0.21484375 5.26171875 -0.21484375 5.26171875 -1.9375 7.6875 C-2.78634766 8.89986328 -2.78634766 8.89986328 -3.65234375 10.13671875 C-4.09707031 10.75160156 -4.54179688 11.36648437 -5 12 C-5.66 11.67 -6.32 11.34 -7 11 C-4.69 7.37 -2.38 3.74 0 0 Z " fill="#FFF4FC" transform="translate(68,105)"/>
<path d="M0 0 C1 3 1 3 -0.21484375 5.48046875 C-0.78332031 6.37378906 -1.35179687 7.26710938 -1.9375 8.1875 C-2.50339844 9.08855469 -3.06929687 9.98960938 -3.65234375 10.91796875 C-4.09707031 11.60503906 -4.54179688 12.29210938 -5 13 C-6 10 -6 10 -5.0390625 7.7734375 C-4.57242188 6.98195313 -4.10578125 6.19046875 -3.625 5.375 C-3.16351563 4.57835937 -2.70203125 3.78171875 -2.2265625 2.9609375 C-1 1 -1 1 0 0 Z " fill="#FEF2FB" transform="translate(42,46)"/>
<path d="M0 0 C0 3 0 3 -1.3125 4.38671875 C-2.875 5.59114583 -4.4375 6.79557292 -6 8 C-5.34 5.69 -4.68 3.38 -4 1 C-2.68 0.67 -1.36 0.34 0 0 Z " fill="#FFF6FF" transform="translate(58,106)"/>
<path d="M0 0 C0.33 0 0.66 0 1 0 C1.66 3.3 2.32 6.6 3 10 C1.68 9.67 0.36 9.34 -1 9 C-0.67 6.03 -0.34 3.06 0 0 Z " fill="#FFDAF8" transform="translate(96,97)"/>
</svg>
